# xmcd
#
# Track frame offsets: 
#        150
#        10675
#        20112
#        32667
#        45325
#        54687
#        66012
#        76175
#        88225
#        103147
#        117522
#        129005
#        143810
#        156950
#        169437
#        181862
#        194525
#        207275
#        219350
#
# Disc length: 3090 seconds
#
# Revision: 0
# Processed by: cddbd v1.5.2PL0 Copyright (c) Steve Scherf et al.
# Submitted via: ExactAudioCopy v1.0b3
#
DISCID=070c1013
DTITLE=Various Artist - Cowboy Classics (Disk 2)
DYEAR=1900
DGENRE=Country
TTITLE0=Al Caiola and His Orchestra - Theme From Bonanza
TTITLE1=Frankie Laine - Rawhide
TTITLE2=Hugo Montenegro and His Orchestra and Chorus - The Good, the Bad
TTITLE2=, and the Ugly
TTITLE3=Tex Ritter - High Noon
TTITLE4=Al Caiola and His Orchestra - Theme From the Magnificent Seven
TTITLE5=Jim Reeves - Mexicalli Rose
TTITLE6=The Sons of the Pioneers - My Adobe Hacienda
TTITLE7=Gene Autry - Alla en El Rancho Grande
TTITLE8=Willie Nelson - South of the Border
TTITLE9=Texas Tornados - Is Anybody Goin' to San Antone
TTITLE10=Frankie Laine - Mule Train
TTITLE11=Willie Nelson - Sioux City Sue
TTITLE12=Frankie Laine - The Cry of the Wild Goose
TTITLE13=Tex Ritter - The Wayward Wind
TTITLE14=Skeets McDonald - Don't Let the Stars Get in Your Eyes
TTITLE15=The Sons Of The Pioneers - I'm an Old Cowhand
TTITLE16=Roy Rogers - Don't Fence Me In
TTITLE17=Gene Autry - (I've Got Spurs That) Jingle, Jangle, Jingle
TTITLE18=Al Dexter and His Troopers - Pistol Packin' Mama
EXTD=
EXTT0=
EXTT1=
EXTT2=
EXTT3=
EXTT4=
EXTT5=
EXTT6=
EXTT7=
EXTT8=
EXTT9=
EXTT10=
EXTT11=
EXTT12=
EXTT13=
EXTT14=
EXTT15=
EXTT16=
EXTT17=
EXTT18=
PLAYORDER=
